{"title":"Ship Of Theseus (2013) 1CD - DVDRip - XviD - Mp3 - Esubs - Chaud","uid":9461995,"size":743302372,"categoryP":"video","categoryS":"movies","magnet":"?xt=urn:btih:514b9b2b37513d514587513680624e203efa4a58&amp;dn=Ship+Of+Theseus+%282013%29+1CD+-+DVDRip+-+XviD+-+Mp3+-+Esubs+-+Chaud&amp;tr=udp%3A%2F%2Ftracker.openbittorrent.com%3A80&amp;tr=udp%3A%2F%2Fopen.demonii.com%3A1337&amp;tr=udp%3A%2F%2Ftracker.coppersurfer.tk%3A6969&amp;tr=udp%3A%2F%2Fexodus.desync.com%3A6969","seeders":1,"leechers":0,"uploader":"Chaudhary1","files":3,"time":1389372361,"description":" &lt;a href=&quot;http://img843.imageshack.us/img843/3355/f8rv.png&quot; rel=&quot;nofollow&quot; target=&quot;_NEW&quot;&gt;http://img843.imageshack.us/img843/3355/f8rv.png&lt;/a&gt;\n\n\nShip Of Theseus (2013) 1CD - DVDRip - XviD - Mp3 - Esubs - Chaudharyâ„¢ ExD - XMR Exclusive\n\n\n &lt;a href=&quot;\nhttp://i.imgur.com/g7mRrVj.jpg&quot; rel=&quot;nofollow&quot; target=&quot;_NEW&quot;&gt;\nhttp://i.imgur.com/g7mRrVj.jpg&lt;/a&gt;\n\nShip Of Theseus (2013) 1CD - DVDRip - XviD - Mp3 - Chaudharyâ„¢  ExD - XMR Exclusive.avi\nFormat                                   : AVI\nFormat/Info                              : Audio Video Interleave\nFile size                                : 701 MiB\nDuration                                 : 2h 24mn\nOverall bit rate                         : 678 Kbps\n\nVideo\nID                                       : 0\nFormat                                   : MPEG-4 Visual\nFormat profile                           : Advanced Simple@L5\nFormat settings, BVOP                    : 1\nFormat settings, QPel                    : No\nFormat settings, GMC                     : No warppoints\nFormat settings, Matrix                  : Default (H.263)\nMuxing mode                              : Packed bitstream\nCodec ID                                 : XVID\nCodec ID/Hint                            : XviD\nDuration                                 : 2h 24mn\nBit rate                                 : 616 Kbps\nWidth                                    : 640 pixels\nHeight                                   : 272 pixels\nDisplay aspect ratio                     : 2.40:1\nFrame rate                               : 23.976 fps\nColor space                              : YUV\nChroma subsampling                       : 4:2:0\nBit depth                                : 8 bits\nScan type                                : Progressive\nCompression mode                         : Lossy\nBits/(Pixel*Frame)                       : 0.148\nStream size                              : 637 MiB (91%)\nWriting library                          : XviD 1.2.1 (UTC 2008-12-04)\n\nAudio\nID                                       : 1\nFormat                                   : MPEG Audio\nFormat version                           : Version 1\nFormat profile                           : Layer 3\nCodec ID                                 : 55\nCodec ID/Hint                            : MP3\nDuration                                 : 2h 24mn\nBit rate mode                            : Constant\nBit rate                                 : 56.0 Kbps\nChannel count                            : 2 channels\nSampling rate                            : 48.0 KHz\nCompression mode                         : Lossy\nStream size                              : 57.9 MiB (8%)\nAlignment                                : Aligned on interleaves\nInterleave, duration                     : 167 ms (4.00 video frames)\nInterleave, preload duration             : 216 ms\nTitle                                    : Chaudharyâ„¢\n\nInfo SS:\n &lt;a href=&quot;\nhttp://i.imgur.com/L24Lsnb.png&quot; rel=&quot;nofollow&quot; target=&quot;_NEW&quot;&gt;\nhttp://i.imgur.com/L24Lsnb.png&lt;/a&gt;\n\nScreenShots:\n &lt;a href=&quot;\nhttp://i.imgur.com/gm4nGAx.png&quot; rel=&quot;nofollow&quot; target=&quot;_NEW&quot;&gt;\nhttp://i.imgur.com/gm4nGAx.png&lt;/a&gt; &lt;a href=&quot;\nhttp://i.imgur.com/g8sY9wK.png&quot; rel=&quot;nofollow&quot; target=&quot;_NEW&quot;&gt;\nhttp://i.imgur.com/g8sY9wK.png&lt;/a&gt; &lt;a href=&quot;\nhttp://i.imgur.com/czYzp6U.png&quot; rel=&quot;nofollow&quot; target=&quot;_NEW&quot;&gt;\nhttp://i.imgur.com/czYzp6U.png&lt;/a&gt; &lt;a href=&quot;\nhttp://i.imgur.com/JZFKxSD.png&quot; rel=&quot;nofollow&quot; target=&quot;_NEW&quot;&gt;\nhttp://i.imgur.com/JZFKxSD.png&lt;/a&gt; &lt;a href=&quot;\nhttp://i.imgur.com/uTcdC3Z.png&quot; rel=&quot;nofollow&quot; target=&quot;_NEW&quot;&gt;\nhttp://i.imgur.com/uTcdC3Z.png&lt;/a&gt; &lt;a href=&quot;\nhttp://i.imgur.com/nv2VAhF.png&quot; rel=&quot;nofollow&quot; target=&quot;_NEW&quot;&gt;\nhttp://i.imgur.com/nv2VAhF.png&lt;/a&gt; &lt;a href=&quot;\nhttp://i.imgur.com/TMSDuwA.png&quot; rel=&quot;nofollow&quot; target=&quot;_NEW&quot;&gt;\nhttp://i.imgur.com/TMSDuwA.png&lt;/a&gt; &lt;a href=&quot;\nhttp://i.imgur.com/6Ows9rC.png&quot; rel=&quot;nofollow&quot; target=&quot;_NEW&quot;&gt;\nhttp://i.imgur.com/6Ows9rC.png&lt;/a&gt; &lt;a href=&quot;\nhttp://i.imgur.com/DCzIhpY.png&quot; rel=&quot;nofollow&quot; target=&quot;_NEW&quot;&gt;\nhttp://i.imgur.com/DCzIhpY.png&lt;/a&gt;\n[IMG]http://i.imgur.com/nIuOBsc.png","torrent":{"xt":"urn:btih:514b9b2b37513d514587513680624e203efa4a58","amp;dn":"Ship+Of+Theseus+%282013%29+1CD+-+DVDRip+-+XviD+-+Mp3+-+Esubs+-+Chaud","amp;tr":["udp%3A%2F%2Ftracker.openbittorrent.com%3A80","udp%3A%2F%2Fopen.demonii.com%3A1337","udp%3A%2F%2Ftracker.coppersurfer.tk%3A6969","udp%3A%2F%2Fexodus.desync.com%3A6969"],"infoHash":"514b9b2b37513d514587513680624e203efa4a58","infoHashBuffer":{"type":"Buffer","data":[81,75,155,43,55,81,61,81,69,135,81,54,128,98,78,32,62,250,74,88]},"announce":[],"urlList":[]}}